<?xml version="1.0" standalone="no"?><!DOCTYPE svg PUBLIC "-//W3C//DTD SVG 1.1//EN" "http://www.w3.org/Graphics/SVG/1.1/DTD/svg11.dtd"><svg t="1668318636566" class="icon" viewBox="0 0 1024 1024" version="1.1" xmlns="http://www.w3.org/2000/svg" p-id="2000" xmlns:xlink="http://www.w3.org/1999/xlink" width="200" height="200"><path d="M512 512m-512 0a512 512 0 1 0 1024 0 512 512 0 1 0-1024 0Z" fill="#FF9784" opacity=".15" p-id="2001"></path><path d="M491.485091 773.12a61.917091 61.917091 0 0 1-43.880727-18.071273l-160.837819-159.930182-2.26909-2.26909a143.313455 143.313455 0 0 1 2.26909-201.227637 145.349818 145.349818 0 0 1 204.730182 0 143.895273 143.895273 0 0 1 57.320728-35.037091 568.064 568.064 0 0 0-49.617455 56.680728 1319.284364 1319.284364 0 0 0-75.077818 112.546909l-0.186182 0.302545c-13.44 21.736727-27.333818 44.218182-41.972364 66.176a31.255273 31.255273 0 0 0-3.781818 32.954182 32.849455 32.849455 0 0 0 29.858909 16.802909 40.203636 40.203636 0 0 0 17.908364-4.235636l0.523636-0.256 40.506182-23.447273a26.088727 26.088727 0 0 0 15.685818-11.973818 31.266909 31.266909 0 0 0 1.92-21.829818 96.837818 96.837818 0 0 1 16.942546-63.755637 190.836364 190.836364 0 0 0 59.694545 9.972364 151.365818 151.365818 0 0 0 84.328727-24.436364 140.148364 140.148364 0 0 0 33.885091-31.941818 159.837091 159.837091 0 0 0 20.305455-35.700364 115.572364 115.572364 0 0 0 21.248-9.972363 143.394909 143.394909 0 0 1-22.190546 168.005818l-2.594909 2.641454-160.837818 159.953455a62.021818 62.021818 0 0 1-43.880727 18.048z" fill="#FC7D5D" p-id="2002"></path><path d="M761.949091 283.368727c-21.957818-17.559273-74.647273-13.172364-147.095273 41.716364-103.179636 76.8-149.282909 177.826909-215.144727 276.619636-10.973091 15.371636 6.586182 24.145455 19.781818 17.559273l41.716364-24.145455c6.586182-2.199273 8.773818-2.199273 6.586182-13.172363a123.543273 123.543273 0 0 1 28.544-90.007273c72.448 30.731636 160.267636 13.172364 190.999272-74.647273 39.563636-8.785455 76.8-52.689455 83.421091-83.421091 6.586182-21.957818 4.386909-41.716364-8.785454-50.490181z" fill="#FC7D5D" opacity=".5" p-id="2003"></path></svg>