<?xml version="1.0" standalone="no"?><!DOCTYPE svg PUBLIC "-//W3C//DTD SVG 1.1//EN" "http://www.w3.org/Graphics/SVG/1.1/DTD/svg11.dtd"><svg t="1668317472781" class="icon" viewBox="0 0 1024 1024" version="1.1" xmlns="http://www.w3.org/2000/svg" p-id="63420" xmlns:xlink="http://www.w3.org/1999/xlink" width="200" height="200"><path d="M513.3824 512m-451.8912 0a451.8912 451.8912 0 1 0 903.7824 0 451.8912 451.8912 0 1 0-903.7824 0Z" fill="#025FFC" p-id="63421"></path><path d="M513.3824 495.8208m-398.3872 0a398.3872 398.3872 0 1 0 796.7744 0 398.3872 398.3872 0 1 0-796.7744 0Z" fill="#0C7AF2" p-id="63422"></path><path d="M513.3824 486.9632m-354.9184 0a354.9184 354.9184 0 1 0 709.8368 0 354.9184 354.9184 0 1 0-709.8368 0Z" fill="#3489FA" p-id="63423"></path><path d="M513.3824 478.72m-304.3328 0a304.3328 304.3328 0 1 0 608.6656 0 304.3328 304.3328 0 1 0-608.6656 0Z" fill="#3F91FC" p-id="63424"></path><path d="M727.0912 286.4128c-30.2592-29.3376-73.7792-39.0144-113.6128-25.2416L290.2528 372.992l-0.1536 0.0512C243.8656 390.0416 214.784 434.176 217.6 483.584c2.8672 50.1248 37.6832 91.136 86.6816 102.0928l103.68 23.1424 33.6896 114.176c13.9264 47.2064 56.3712 79.2064 105.8304 79.616h0.6656c48.8448 0 91.4432-31.3344 105.984-77.9776l101.632-325.4272c12.5952-40.2432 1.5872-83.456-28.672-112.7936z m-174.6944 180.0704l-6.5536 21.0432c-3.9424-5.12-8.3456-9.8816-13.1072-14.2336l19.6608-6.8096z" fill="#025FFC" p-id="63425"></path><path d="M548.1984 771.8912h-0.6656c-35.6352-0.256-66.3552-23.3984-76.3904-57.6l-38.8096-131.5328-121.344-27.0848c-35.4304-7.8848-60.6208-37.5808-62.72-73.8304-2.048-36.2496 19.6096-68.608 53.9136-80.4864l321.3312-111.1552c28.8256-9.984 60.3136-2.9696 82.176 18.2784s29.8496 52.48 20.736 81.6128l-101.632 325.4272c-10.496 33.7408-41.216 56.3712-76.5952 56.3712zM446.72 470.5792l28.672 6.4a80.2816 80.2816 0 0 1 59.5456 55.6544l14.08 47.7696 50.8416-162.7648-153.1392 52.9408z m-107.6736 37.2224s0.0512 0 0 0z" fill="#F7BC00" p-id="63426"></path><path d="M548.1984 748.8512h-0.4608c-25.3952-0.2048-47.3088-16.6912-54.4768-41.0624L450.56 563.2l-134.5536-30.0032c-25.2928-5.632-43.264-26.7776-44.7488-52.6336-1.4848-25.856 13.9776-48.9472 38.4512-57.3952l321.3312-111.1552c20.5312-7.1168 43.008-2.1504 58.624 13.0048 15.616 15.1552 21.2992 37.4272 14.7968 58.2144l-101.632 325.4272c-7.4752 24.064-29.44 40.192-54.6304 40.192zM362.3936 475.3408l107.9808 24.1152c20.2752 4.5056 36.5568 19.712 42.496 39.68l35.584 120.5248 87.04-278.784-273.1008 94.464z m-30.8736 10.7008z" fill="#FFD029" p-id="63427"></path><path d="M548.1984 733.4912H547.84a41.73312 41.73312 0 0 1-39.8848-30.0544l-44.2368-149.76c-0.6144-2.0992-2.3552-3.7376-4.5056-4.1984l-139.8784-31.232c-18.4832-4.1472-31.6416-19.6096-32.7168-38.5536-1.0752-18.944 10.24-35.7888 28.16-42.0352l321.3312-111.1552a41.8304 41.8304 0 0 1 42.9056 9.5232 41.8048 41.8048 0 0 1 10.8544 42.5984l-101.632 325.4272a41.79968 41.79968 0 0 1-40.0384 29.44z m-221.696-261.9904c-3.584 1.2288-4.1984 3.9936-4.096 6.0928 0.1024 2.0992 1.024 4.7616 4.7616 5.5808l139.8784 31.232c14.848 3.328 26.7776 14.4384 31.0784 29.0304l44.2368 149.76c1.0752 3.584 3.7376 4.352 5.7856 4.352 1.9968 0.1024 4.7616-0.7168 5.8368-4.2496l101.632-325.4272c0.9728-3.1232-0.5632-5.2224-1.5872-6.1952-1.024-0.9728-3.1744-2.4576-6.2464-1.3824L326.5024 471.5008z" fill="#FFE576" p-id="63428"></path></svg>