<?xml version="1.0" standalone="no"?><!DOCTYPE svg PUBLIC "-//W3C//DTD SVG 1.1//EN" "http://www.w3.org/Graphics/SVG/1.1/DTD/svg11.dtd"><svg t="1668318092566" class="icon" viewBox="0 0 1024 1024" version="1.1" xmlns="http://www.w3.org/2000/svg" p-id="73561" xmlns:xlink="http://www.w3.org/1999/xlink" width="200" height="200"><path d="M512 12.487805c274.731707 0 499.512195 224.780488 499.512195 499.512195s-224.780488 499.512195-499.512195 499.512195-499.512195-224.780488-499.512195-499.512195 224.780488-499.512195 499.512195-499.512195z" fill="#4FCCFF" p-id="73562"></path><path d="M321.261268 612.776585c-32.393366-54.921366-19.181268-136.81639 15.035317-187.716683a15.934439 15.934439 0 0 1 28.721952 5.020098h0.249756c0.674341 3.221854 1.373659 5.719415 1.923122 8.241951 3.546537-11.538732 8.316878-22.877659 14.261073-33.617171 18.481951-32.268488 48.128-59.042341 79.822049-71.380292a15.834537 15.834537 0 0 1 20.654829 9.141073 16.483902 16.483902 0 0 1-0.249756 12.362927 310.446829 310.446829 0 0 0-8.192 21.479024 270.211122 270.211122 0 0 1 84.017951-51.799414c63.413073-23.901659 135.467707-16.808585 162.716098 55.470829a16.184195 16.184195 0 0 1-9.240976 20.829658l-1.698342 0.449561c-53.697561 14.186146-73.877854 49.426732-92.809365 82.71922-26.349268 46.454634-50.97522 89.787317-139.014244 88.413658 5.944195 2.647415 13.686634 5.619512 23.477073 8.691513a16.234146 16.234146 0 0 1 10.739512 20.155317 17.358049 17.358049 0 0 1-8.092097 9.590634c-40.485463 22.877659-111.39122 39.13678-157.021659 21.179317-6.493659 9.141073-16.184195 29.146537-9.490732 60.391024h44.381659c5.369756 0 9.565659 4.245854 9.565658 9.740488 0 5.244878-4.195902 9.590634-9.565658 9.590634h-58.368a16.15922 16.15922 0 0 1-17.358049-12.712585c-8.891317-41.959024 5.020098-71.380293 15.534829-86.240781z m117.560195 98.953366h272.683708a9.790439 9.790439 0 0 0 9.790439-9.61561 9.740488 9.740488 0 0 0-9.790439-9.740487H438.821463a9.665561 9.665561 0 0 0 0 19.331122z" fill="#FFFFFF" p-id="73563"></path></svg>