<?xml version="1.0" standalone="no"?><!DOCTYPE svg PUBLIC "-//W3C//DTD SVG 1.1//EN" "http://www.w3.org/Graphics/SVG/1.1/DTD/svg11.dtd"><svg t="1668317605990" class="icon" viewBox="0 0 1024 1024" version="1.1" xmlns="http://www.w3.org/2000/svg" p-id="72283" xmlns:xlink="http://www.w3.org/1999/xlink" width="200" height="200"><path d="M512 512m-512 0a512 512 0 1 0 1024 0 512 512 0 1 0-1024 0Z" fill="#FFDA44" p-id="72284"></path><path d="M694.857143 804.571429H329.142857a58.514286 58.514286 0 0 1-58.514286-58.514286V497.371429a58.514286 58.514286 0 0 1 58.514286-58.514286h160.914286v-55.003429a65.828571 65.828571 0 1 1 43.885714 0V438.857143h160.914286a58.514286 58.514286 0 0 1 58.514286 58.514286v248.685714a58.514286 58.514286 0 0 1-58.514286 58.514286z m-66.633143-468.918858h-14.628571a14.628571 14.628571 0 1 1 0-29.257142h14.628571a14.628571 14.628571 0 0 1 0 29.257142z m-20.918857 23.552l12.653714 7.314286a14.628571 14.628571 0 1 1-14.628571 25.307429l-12.653715-7.314286a14.628571 14.628571 0 1 1 14.628572-25.307429z m12.653714-83.602285l-12.653714 7.314285a14.650514 14.650514 0 0 1-14.628572-25.380571l12.653715-7.314286a14.650514 14.650514 0 1 1 14.628571 25.380572z m-44.470857-35.254857a14.650514 14.650514 0 0 1-25.380571-14.628572l7.314285-12.653714a14.650514 14.650514 0 0 1 25.380572 14.628571zM512 234.057143a14.672457 14.672457 0 0 1-14.628571-14.628572v-14.628571a14.628571 14.628571 0 0 1 29.257142 0v14.628571a14.672457 14.672457 0 0 1-14.628571 14.628572z m-43.52 11.629714a14.5408 14.5408 0 0 1-19.968-5.339428l-7.314286-12.653715a14.650514 14.650514 0 0 1 25.380572-14.628571l7.314285 12.653714a14.628571 14.628571 0 0 1-5.412571 19.968z m-37.156571 138.825143l-12.653715 7.314286a14.628571 14.628571 0 1 1-14.628571-25.307429l12.653714-7.314286a14.628571 14.628571 0 0 1 14.628572 25.307429z m-14.628572-101.595429l-12.653714-7.314285a14.650514 14.650514 0 1 1 14.628571-25.380572l12.653715 7.314286a14.650514 14.650514 0 0 1-14.628572 25.380571z m8.338286 38.107429a14.628571 14.628571 0 0 1-14.628572 14.628571h-14.628571a14.628571 14.628571 0 0 1 0-29.257142h14.628571a14.672457 14.672457 0 0 1 14.628572 14.628571z" fill="#FFFFFF" p-id="72285"></path><path d="M212.114286 533.942857h29.257143v175.542857h-29.257143a87.771429 87.771429 0 0 1-87.771429-87.771428 87.771429 87.771429 0 0 1 87.771429-87.771429z" fill="#FFFFFF" p-id="72286"></path><path d="M204.8 563.2h7.314286v117.028571h-7.314286a51.2 51.2 0 0 1-51.2-51.2v-14.628571a51.2 51.2 0 0 1 51.2-51.2z" fill="#8ED420" p-id="72287"></path><path d="M782.628571 541.257143h29.257143a87.771429 87.771429 0 0 1 87.771429 87.771428 87.771429 87.771429 0 0 1-87.771429 87.771429h-29.257143V541.257143z" fill="#FFFFFF" p-id="72288"></path><path d="M811.885714 570.514286h7.314286a51.2 51.2 0 0 1 51.2 51.2v14.628571a51.2 51.2 0 0 1-51.2 51.2h-7.314286V570.514286z" fill="#8ED420" p-id="72289"></path><path d="M409.6 621.714286m-80.457143 0a80.457143 80.457143 0 1 0 160.914286 0 80.457143 80.457143 0 1 0-160.914286 0Z" fill="#32C4EE" p-id="72290"></path><path d="M621.714286 621.714286m-80.457143 0a80.457143 80.457143 0 1 0 160.914286 0 80.457143 80.457143 0 1 0-160.914286 0Z" fill="#32C4EE" p-id="72291"></path><path d="M431.542857 607.085714m-21.942857 0a21.942857 21.942857 0 1 0 43.885714 0 21.942857 21.942857 0 1 0-43.885714 0Z" fill="#FFFFFF" p-id="72292"></path><path d="M643.657143 607.085714m-21.942857 0a21.942857 21.942857 0 1 0 43.885714 0 21.942857 21.942857 0 1 0-43.885714 0Z" fill="#FFFFFF" p-id="72293"></path><path d="M512 321.828571m-36.571429 0a36.571429 36.571429 0 1 0 73.142858 0 36.571429 36.571429 0 1 0-73.142858 0Z" fill="#FF8F44" p-id="72294"></path></svg>